<svg xmlns="http://www.w3.org/2000/svg" xml:space="preserve" viewBox="0 0 1024 1024"><path fill="#763A00" d="M577.04 817.15c-29.28 18.98-50.62 31.91-63.99 38.78-10.3 5.42-18.89 3.62-25.76-5.42-6.69-9.04-7.14-15.28-1.36-18.71 14.28-8.68 31.82-21.24 52.6-37.69 20.25-16.09 34.17-28.2 41.76-36.33-13.2-16.09-23.05-26.84-29.56-32.27l21.69-16.27 31.18-8.95-5.95 18.71c2.53-1.45 10.67-4.61 24.4-9.49l-2.44 24.4-4.88 4.88 23.59 34.17c-9.03 8.67-29.46 23.41-61.28 44.19"/><path fill="#FFE100" d="M869.35 299.25c-.36 54.23.09 94.09 1.36 119.58-31.09 6.87-68.87 17.63-113.34 32.27-52.97 17.53-93.55 34.08-121.75 49.62l25.22 36.61 32.81 43.93c-31.27 20.79-53.96 37.15-68.06 49.08l49.89 55.86-55.86 47.72 2.44-24.4c-13.74 4.88-21.87 8.04-24.4 9.49l5.97-18.71-31.18 8.95 26.84-22.78c-16.99-10.48-37.96-25.31-62.91-44.47l58.03-66.16-68.06-79.18-85.41-95.72C610.49 291.57 753.75 221.25 870.7 189.97c-.72 30.92-1.17 67.34-1.35 109.28"/><path fill="#763A00" d="m572.44 708.42 30.64-11.93 3.25.27.54 2.44-5.69 15.18 19.25-8.68c3.07-1.08 4.61-.27 4.61 2.44-.18 7.23-1.45 15.82-3.8 25.76l-5.42 4.07 2.71-24.13c-4.52 1.08-11.21 3.53-20.07 7.32-3.43 1.27-4.7.27-3.8-2.98l4.61-13.83c-14.64 4.52-25.76 8.13-33.35 10.85l6.52-6.78"/><path fill="#542400" d="m578.94 816.07-66.43 37.69c14.46-9.22 34.89-24.49 61.28-45.83l55.59-47.72 9.49 12.74c-13.56 12.48-33.53 26.85-59.93 43.12"/><path fill="#F9BE00" d="M755.19 452.18c-44.47 15-85.78 30.37-123.92 46.1 21.51-14.64 58.03-33.98 109.55-58.03 56.58-26.39 99.33-42.84 128.26-49.35l1.08 27.93c-28.74 6.14-67.06 17.26-114.97 33.35m-76.46 110.36 15.46 18.98-73.48 47.45c28.55-35.25 47.89-57.39 58.02-66.43m-4.34 124.19-23.32 18.71-28.74 23.59 1.63-10.85c16.81-25.31 28.74-41.58 35.79-48.81l14.64 17.36"/><path fill="#542400" d="m622.33 729.03-10.85 8.13 12.47-18.98-1.62 10.85"/><path fill="#0D131A" d="M875.31 187.26c-1.27 17.35-1.72 55.41-1.36 114.16l1.08 120.12-1.9 2.44c-38.87 8.32-80.89 20.16-126.09 35.52-42.48 14.64-77.55 28.92-105.21 42.84 11.57 17.53 30.55 43.75 56.94 78.63 1.08 1.27.9 2.35-.54 3.25-28.56 18.8-50.71 34.35-66.43 46.64l48.27 55.04c1.08 1.08.99 2.17-.27 3.25l-35.79 29.56c-12.47 10.3-20.43 17.26-23.86 20.88l22.51 33.35-.27 2.98c-7.05 7.05-22.78 18.44-47.18 34.17a1158.028 1158.028 0 0 1-79.72 46.37l-4.88.54c-.54-1.08.45-2.35 2.98-3.8 65.26-40.49 105.03-67.34 119.31-80.53l-21.96-32.27c-.72-1.08-.63-2.08.27-2.98l22.78-21.96 33.89-29.28c-20.25-24.4-36.15-42.39-47.72-53.96-1.27-1.27-1.17-2.35.27-3.25 21.87-17.53 43.93-33.62 66.16-48.27-22.96-30.73-41.76-57.12-56.4-79.18-1.08-1.45-.81-2.53.81-3.25 28.56-14.46 63.99-29.28 106.29-44.47 46.82-16.99 89.48-29.65 127.98-37.96-1.63-24.58-2.35-62.28-2.17-113.07.18-49.71.99-85.05 2.44-106.02-59.47 16.27-131.6 45.83-216.38 88.67-79.18 39.95-145.52 79.18-199.03 117.68 24.58 26.39 74.39 83.7 149.41 171.91.9 1.08.9 2.08 0 2.98l-29.56 32.81-27.12 30.91c32.18 24.22 52.15 38.78 59.93 43.66 1.63 1.08 1.72 2.35.27 3.8l-44.47 36.88c8.5 8.5 17.35 18.98 26.57 31.45.9 1.08.9 2.08 0 2.98-6.51 7.77-20.43 19.61-41.76 35.52-20.97 15.55-39.32 27.75-55.04 36.61l-4.34.54c-.72-.9-.09-2.08 1.9-3.52l50.43-37.69c19.52-15.37 32.36-26.57 38.5-33.62-10.3-13.38-19.52-23.59-27.66-30.64-1.27-1.27-1.17-2.44.27-3.53l44.74-36.61c-17.53-11.57-37.78-25.85-60.74-42.84-1.27-1.08-1.36-2.17-.27-3.25l56.94-65.35-76.74-89.21-74.84-83.52c-1.08-1.27-.99-2.44.27-3.53 54.23-40.13 124.46-81.62 210.69-124.46 88.58-44.11 163.6-74.3 225.06-90.57 2.2-.53 3.11.28 2.74 2.45m-658.09-63.99c-11.03 6.15-20.7 20.34-29.01 42.57-7.05 18.8-11.12 37.06-12.2 54.77-8.32-24.95-14.73-57.39-19.25-97.34-4.7-40.85-4.07-62.09 1.9-63.72 5.78-1.63 14.64 4.52 26.57 18.44 9.58 11.2 20.24 26.3 31.99 45.28"/><path fill="#FFE100" d="M644.29 97.78c5.97 9.58 8.41 27.3 7.32 53.15-1.08 22.78-4.16 42.57-9.22 59.38-13.38 14.28-29.28 28.38-47.72 42.3-20.79 15.91-38.5 26.48-53.15 31.73 16.81 13.56 30.28 29.19 40.4 46.91 6.69 11.57 12.56 25.76 17.62 42.57 8.68 27.3 9.22 56.4 1.63 87.31-6.69 27.12-17.26 47.99-31.73 62.64-33.26 31.09-76.28 50.16-129.07 57.21-45.19 6.15-88.67 2.98-130.43-9.49-17.9-5.97-34.35-16.72-49.35-32.27-16.81-17.17-28.56-37.24-35.25-60.2-6.51-22.05-7.86-44.74-4.07-68.06 2.89-18.44 8.77-36.06 17.63-52.88-11.21-12.65-23.77-34.62-37.69-65.89-11.57-26.57-19.79-48.99-24.68-67.25.9-26.57 6.15-49.71 15.73-69.42 7.23-14.82 15.18-25.31 23.86-31.45 14.28 20.43 28.47 48.72 42.57 84.87 14.82 37.78 23.23 68.51 25.22 92.19 25.85-23.68 58.48-39.77 97.89-48.27 35.97-7.77 67.52-7.59 94.63.54 18.44-29.28 46.73-61.01 84.87-95.18 34.54-30.7 62.2-50.86 82.99-60.44"/><path fill="#FFE100" d="M333.55 557.93c34.89-16.81 65.8-28.2 92.73-34.17 21.69-4.7 50.53-6.96 86.5-6.78 35.43 0 54.32 2.26 56.67 6.78 10.12 19.34 20.25 46.64 30.37 81.89 10.85 38.32 18.8 76.19 23.86 113.61 12.83 96.89 2.35 157.99-31.45 183.3-24.77 18.8-68.06 16.72-129.88-6.24-27.12-9.76-47.09-16.18-59.93-19.25-16.45-3.8-33.35-5.33-50.71-4.61-17.53.72-33.08-1.27-46.64-5.97-12.29-4.16-21.15-9.67-26.57-16.54-12.29-15.91-16.9-42.75-13.83-80.53 2.35-28.38 8.13-57.21 17.35-86.5l15.46-43.93 15.18-40.94c1.99-4.88 6.06-13.02 12.2-24.4l8.69-15.72"/><path fill="#FFE100" d="M333.55 557.93c5.78-1.99 10.3 3.43 13.56 16.27 3.43 13.56 2.8 27.66-1.9 42.3-5.06 15.55-14.73 30.73-29.01 45.55-14.1 14.82-25.49 21.78-34.17 20.88-9.58.18-18.98-1.27-28.2-4.34-8.13-2.89-12.38-5.6-12.74-8.13 0-3.8 1.99-7.14 5.97-10.03l-9.76-17.9c-3.25-6.51-4.7-10.3-4.34-11.39.9-1.45 4.43-1.9 10.58-1.36-.18-10.67 3.8-13.83 11.93-9.49.36-8.5 3.89-9.67 10.58-3.53 5.42-8.68 12.65-17.44 21.69-26.3 7.77-7.77 15.18-14.1 22.23-18.98 5.77-5.6 13.64-10.12 23.58-13.55"/><path fill="#0D131A" d="M644.29 97.78c18.8-9.76 38.05-17.81 57.76-24.13 24.4-7.77 38.59-8.68 42.57-2.71 5.06 7.59-6.33 29.47-34.17 65.62-25.67 33.08-48.99 58.57-69.96 76.47 6.51-20.07 10.21-40.31 11.12-60.74.91-21.52-1.53-39.69-7.32-54.51"/><path fill="#FFE100" d="M235.93 848.34c9.58-7.95 19.88-13.65 30.91-17.08 10.12 24.04 31.91 37.69 65.35 40.94-15.91 7.95-34.8 13.65-56.67 17.08-22.05 3.25-34.98 2.35-38.78-2.71-7.41 1.81-11.75.81-13.02-2.98-1.08-3.07-.36-6.51 2.17-10.3-5.23-6.88-1.89-15.19 10.04-24.95m308.31 66.7c14.64.54 28.02-1.99 40.13-7.59 11.39-5.24 19.43-12.02 24.13-20.34 9.4 15.55 15.18 30.28 17.35 44.2 2.17 14.28 0 23.32-6.51 27.12-.18 5.24-2.62 7.86-7.32 7.86-4.16-.18-7.59-1.9-10.3-5.15-2.17 5.97-10.85 3.34-26.03-7.86-15.55-11.58-26.03-24.32-31.45-38.24"/><path fill="#B50005" d="m371.51 477.94 18.44-11.93c3.62-2.71 9.04-5.15 16.27-7.32l15.18-2.71 23.05-2.44c-.54 5.24-2.53 10.48-5.97 15.73l-29.83 1.63c-10.3 3.8-16.72 9.49-19.25 17.08l-17.89-10.04"/><path fill="#E50012" d="M389.14 487.7c3.62-7.05 10.21-12.56 19.79-16.54 10.48-4.34 20.52-4.88 30.1-1.63-14.83 19.53-31.46 25.58-49.89 18.17"/><path fill="#F9BE00" d="M241.63 666.66c2.89 2.17 9.4 3.34 19.52 3.53l24.95-2.71-3.8 14.91c-9.94.36-19.79-1.18-29.56-4.61-10.3-3.62-14.01-7.32-11.11-11.12m164.05-79.72c-.18-2.53 6.06-4.79 18.71-6.78l19.52 1.08c.18 2.17-2.26 4.43-7.32 6.78l-11.93 3.53-11.66-.54c-4.88-.9-7.32-2.26-7.32-4.07m-141 198.22c6.51 48.27 33.08 70.5 79.72 66.7 23.5-1.99 46.19-.36 68.06 4.88 18.8 4.52 41.49 12.92 68.06 25.22 30.01 14.1 59.65 15.73 88.94 4.88 37.42-13.74 57.85-46.82 61.28-99.24-.36 41.03-5.78 71.13-16.27 90.29-16.81 31.27-47.99 42.75-93.55 34.44-15.18-2.71-43.75-11.03-85.68-24.95-34.35-11.39-56.85-16.45-67.52-15.18-33.62 3.98-59.65-.81-78.09-14.37-20.44-15.01-28.75-39.23-24.95-72.67"/><path fill="#F9BE00" d="M245.15 842.64c.9-1.27 4.7-3.16 11.39-5.69l12.2-4.34c3.62 10.48 12.56 19.79 26.84 27.93 13.02 7.41 25.13 11.12 36.33 11.12-11.39 6.15-24.13 10.76-38.23 13.83-16.8-25.13-32.98-39.41-48.53-42.85m319.69 101.41-11.12-13.56c-3.62-5.42-6.15-10.58-7.59-15.46 26.39 2.71 47-6.51 61.82-27.66 5.97 9.22 9.58 15.91 10.85 20.07-12.11.72-23.23 4.43-33.35 11.12-10.3 6.69-17.17 15.19-20.61 25.49"/><path fill="#0D131A" d="M285.83 395.78c8.5-2.35 16.63-.9 24.4 4.34 7.59 5.24 12.74 12.83 15.46 22.78 2.89 9.58 2.08 18.26-2.44 26.03-4.16 7.23-10.58 12.2-19.25 14.91-8.68 2.53-17.26 1.63-25.76-2.71-8.32-4.34-13.65-10.76-16-19.25-2.89-9.94-2.17-19.34 2.17-28.2 4.33-9.22 11.47-15.19 21.42-17.9"/><path fill="#FFF" d="m284.2 399.58 12.2.54c3.8 1.81 6.42 4.61 7.86 8.41 1.45 4.16 1.45 8.13 0 11.93-1.63 3.98-4.61 6.78-8.95 8.41l-12.2-.54c-3.8-1.81-6.33-4.79-7.59-8.95-1.27-4.34-.99-8.41.81-12.2 1.63-3.81 4.25-6.34 7.87-7.6"/><path fill="#0D131A" d="M479.97 334.5c10.12-3.25 19.98-2.17 29.56 3.25 9.94 5.42 16 13.65 18.17 24.68 1.99 9.22.63 18.08-4.07 26.57-4.52 8.5-11.03 14.19-19.52 17.08-9.94 3.43-19.43 2.8-28.47-1.9-8.68-4.52-14.55-11.3-17.62-20.34-3.62-11.21-3.07-21.6 1.63-31.18 4.32-9.21 11.1-15.27 20.32-18.16"/><path fill="#FFF" d="M478.07 338.57c3.98-1.81 8.04-1.81 12.2 0 4.16 1.63 7.05 4.52 8.68 8.68 1.45 3.8 1.45 7.77 0 11.93-1.45 4.52-4.25 7.5-8.41 8.95-4.34 1.63-8.41 1.63-12.2 0-3.98-1.63-6.78-4.43-8.41-8.41s-1.72-8.04-.27-12.2 4.26-7.15 8.41-8.95"/><path fill="#0D131A" d="M387.51 438.35c-.18-.72 1.72-1.63 5.69-2.71l5.97-1.08-1.63 3.53-3.53 2.44-3.8-.27-2.7-1.91"/><path fill="#E50012" d="M572.98 401.75c6.87 2.71 11.39 9.85 13.56 21.42 2.35 11.57 1.45 22.87-2.71 33.89-4.52 12.47-11.57 21.78-21.15 27.93-9.58 6.15-18.44 7.23-26.57 3.25-8.13-3.8-13.47-11.12-16-21.96-2.71-11.39-1.36-22.96 4.07-34.71 5.78-12.47 13.47-21.51 23.05-27.12 9.03-5.05 17.61-5.96 25.75-2.7M285.55 504.78c7.95 10.12 13.29 20.16 16 30.1 2.71 10.48 1.54 17.53-3.53 21.15-4.88 3.43-11.84 2.44-20.88-2.98-7.77-4.52-16.09-11.66-24.95-21.42-7.77-8.86-13.2-17.99-16.27-27.39-3.07-9.58-2.62-16.36 1.36-20.34 4.88-4.52 12.29-4.61 22.23-.27 9.59 4.16 18.27 11.21 26.04 21.15"/><path fill="#0D131A" d="M177.36 65.79c21.69 20.61 42.75 50.89 63.18 90.84 24.22 47.54 39.59 94.99 46.1 142.36l-5.42 4.88c-7.41-47.54-23.86-95.9-49.35-145.07-19.34-37.6-38.78-67.16-58.3-88.67-5.6-5.78-9.67-8.59-12.2-8.41-3.25.36-4.97 5.15-5.15 14.37-.9 31.45 5.51 73.75 19.25 126.9 16.63 64.35 38.14 115.06 64.53 152.12l-2.71 6.78c-28.74-37.06-51.79-87.58-69.14-151.58-15.18-56.22-21.24-101.23-18.17-135.03.9-11.93 3.71-18.53 8.41-19.79 4.33-1.09 10.66 2.34 18.97 10.3"/><path fill="#0D131A" d="m179.8 230.1-5.69-13.83c1.63-21.87 5.97-41.13 13.02-57.76 6.87-16.45 15.91-29.01 27.12-37.69l4.07 5.69c-11.75 9.22-20.97 23.23-27.66 42.03-6.52 18.09-10.13 38.61-10.86 61.56m476.96-38.23C694 153.01 720.85 119.2 737.3 90.46c5.24-9.04 6.87-14.91 4.88-17.63l-20.34-.54c-31.63 6.15-67.16 22.23-106.56 48.27-52.42 34.53-97.71 79.09-135.85 133.68l-6.24-1.9c40.13-59.11 85.96-105.57 137.48-139.37 38.5-25.31 75.02-40.85 109.55-46.64 15.55-2.71 24.86-1.72 27.93 2.98 2.71 4.34.99 12.38-5.15 24.13-17.17 32.18-44.65 67.61-82.43 106.29-42.66 43.57-81.35 72.58-116.05 87.04l-5.69-4.07c34.15-14.45 73.46-44.73 117.93-90.83"/><path fill="#0D131A" d="m646.19 207.06-10.03 8.41c8.13-25.49 12.29-50.07 12.47-73.75 0-19.7-2.17-33.26-6.51-40.67l5.42-3.8c4.7 8.13 7.41 21.24 8.13 39.32.73 22.4-2.43 45.9-9.48 70.49M580.84 556.3c-1.27-4.16-1.27-6.51 0-7.05 1.45-.54 2.89 1.27 4.34 5.42 31.63 87.67 47.27 166.13 46.91 235.36-.54 69.96-17.53 111.44-50.98 124.46-18.26 7.05-44.38 6.78-78.36-.81-20.61-4.52-47.63-12.93-81.08-25.22-13.92-5.06-24.58-8.41-32-10.03l-33.62-2.44-42.57-2.71c-16.27-3.62-29.65-11.3-40.13-23.05-13.38-14.64-16.72-46.19-10.03-94.63 6.69-49.53 21.96-100.87 45.83-154.02 1.63-3.62 3.16-5.15 4.61-4.61 1.27.54 1.08 2.62-.54 6.24-21.87 53.51-35.97 103.85-42.3 151.03-5.97 46.28-2.8 76.28 9.49 90.02 9.94 11.21 21.96 18.44 36.06 21.69l39.59 2.98 36.88 2.44c7.41 1.45 17.81 4.79 31.18 10.03 72.49 27.48 123.65 35.52 153.47 24.13 30.55-11.57 45.55-51.61 45.01-120.12-.36-65.06-14.28-141.43-41.76-229.11m-275.22 13.83 7.86 2.44c-18.8 13.02-35.34 30.01-49.62 50.98-1.99 3.07-3.52 4.34-4.61 3.8-1.08-.72-.63-2.62 1.36-5.69 13.01-22.24 28.02-39.42 45.01-51.53m44.47-89.21c-1.63-1.08-2.08-2.08-1.36-2.98l3.8-.27c6.69 2.53 16.72-.99 30.1-10.58 7.77-5.6 14.55-9.31 20.34-11.12 5.78-1.99 14.01-3.16 24.68-3.52l18.17-2.71c4.88-1.81 7.95-4.88 9.22-9.22.9-2.17 1.9-3.07 2.98-2.71 1.08.18 1.45 1.45 1.08 3.8-2.17 11.03-12.65 16.9-31.45 17.62l-22.78 3.25c-5.42 1.81-11.66 5.24-18.71 10.3-15.55 11.22-27.58 13.93-36.07 8.14"/><path fill="#0D131A" d="M374.49 475.77c14.46 11.21 27.84 14.64 40.13 10.3 6.51-2.35 12.2-6.51 17.08-12.47 4.88-5.97 8.23-12.65 10.03-20.07l7.32-1.36c-1.27 8.5-5.06 16.36-11.39 23.59-5.97 6.87-13.02 11.84-21.15 14.91l-23.32 1.36c-8.5-1.81-16.72-5.88-24.68-12.2l5.98-4.06M225.9 854.57c8.32-10.85 21.78-19.7 40.4-26.57l2.44 6.51c-15.91 6.33-27.75 13.47-35.52 21.42-6.69 7.05-8.68 12.29-5.97 15.73l-4.07 5.69c-5.78-5.24-4.87-12.83 2.72-22.78"/><path fill="#0D131A" d="M247.32 853.76c2.53-1.27 4.07-1.27 4.61 0 .72 1.08-.18 2.35-2.71 3.8-6.15 3.62-11.48 7.95-16 13.02-4.88 5.24-6.78 9.22-5.69 11.93l9.22.81 2.44 5.97-11.12 1.08c-4.34-.54-6.96-2.08-7.86-4.61-1.81-4.88.63-10.85 7.32-17.9 5.96-6.33 12.56-11.03 19.79-14.1"/><path fill="#0D131A" d="m328.13 871.38 11.12 1.63c-20.07 9.94-42.57 16.63-67.52 20.07-24.58 3.25-37.87 1.54-39.86-5.15-1.08-3.43 1.18-7.77 6.78-13.02 5.97-5.78 12.93-9.67 20.88-11.66 2.53-.54 3.98-.27 4.34.81.36 1.27-.63 2.35-2.98 3.25-5.97 2.35-11.12 5.33-15.46 8.95-4.16 3.62-5.97 6.51-5.42 8.68.72 3.07 9.76 3.8 27.12 2.17 20.23-1.99 40.57-7.23 61-15.73m212.31 43.39 7.86-.54c4.88 13.2 13.92 24.95 27.12 35.25 11.75 9.22 19.34 12.83 22.78 10.85 1.63-1.08 1.36-4.61-.81-10.58-1.99-5.97-5.15-12.47-9.49-19.52-1.27-1.81-1.36-3.07-.27-3.8.9-.54 2.08 0 3.53 1.63 5.6 6.69 9.58 14.28 11.93 22.78 2.35 8.86 1.81 14.19-1.63 16-5.24 2.71-14.91-1.17-29.01-11.66-15.74-11.76-26.41-25.23-32.01-40.41"/><path fill="#0D131A" d="M607.96 924.53c-1.08-2.53-.99-4.07.27-4.61 1.08-.54 2.26.36 3.52 2.71 6.33 11.93 9.67 22.51 10.03 31.73.18 7.95-1.72 12.74-5.69 14.37l-7.32.27c-3.25-.72-6.15-2.44-8.68-5.15l2.71-5.97c4.52 4.52 8.13 6.15 10.85 4.88 2.17-1.08 2.89-4.88 2.17-11.39-.9-7.23-3.53-16.17-7.86-26.84"/><path fill="#0D131A" d="m605.79 889.82 4.88-5.97c9.94 16.45 16 32.54 18.17 48.27 2.17 17.17-1.36 27.75-10.58 31.73l.81-7.59c4.52-4.34 5.42-13.2 2.71-26.57-2.71-13.02-8.04-26.31-15.99-39.87M439.57 466.55l-2.44 4.88c-7.95-2.53-16.72-1.99-26.3 1.63-9.58 3.62-15.91 8.77-18.98 15.46l-5.42-1.63c3.8-8.13 10.94-14.28 21.42-18.44 10.48-4.16 21.05-4.79 31.72-1.9m-194.69-123.1c1.99-2.89 3.62-3.98 4.88-3.25 1.27.9.99 2.8-.81 5.69-12.29 20.97-20.07 42.66-23.32 65.08-3.25 22.6-1.81 45.01 4.34 67.25 6.69 24.22 18.71 44.65 36.06 61.28 17.17 16.27 38.41 27.93 63.72 34.98 4.88 1.45 7.14 2.8 6.78 4.07l-7.86.81c-26.03-5.06-48.9-16.54-68.6-34.44-19.7-17.9-32.99-39.32-39.86-64.26-6.33-22.78-7.32-46.28-2.98-70.5 4.33-24.41 13.55-46.65 27.65-66.71m177.61-98.43c24.4-.72 46.28 2.53 65.62 9.76 3.25 1.27 4.7 2.53 4.34 3.8l-5.69.54c-41.94-11.57-86.41-9.22-133.41 7.05-29.83 10.12-54.95 24.77-75.38 43.93-2.53 2.35-4.25 3.07-5.15 2.17-1.08-1.08-.45-2.89 1.9-5.42 19.16-21.69 44.47-37.96 75.92-48.81 24.03-8.14 47.99-12.48 71.85-13.02m178.15 115.51c8.86 25.13 11.39 52.6 7.59 82.43-4.34 33.8-16.27 60.92-35.79 81.35-2.35 2.53-3.98 3.34-4.88 2.44-1.08-.9-.63-2.71 1.36-5.42 16.99-22.23 27.3-48.99 30.91-80.26 3.25-28.2.63-54.14-7.86-77.82-12.47-35.61-33.08-63.54-61.82-83.79-3.07-2.17-4.16-3.8-3.25-4.88.72-1.08 2.71-.72 5.97 1.08 15.18 8.86 28.74 20.7 40.67 35.52 11.73 14.82 20.77 31.27 27.1 49.35m-333.8 253.8-3.25 4.07c-2.17-1.63-3.71-2.26-4.61-1.9l-1.08 3.25-1.63 3.53-4.07-1.08-4.07-.81c-1.27.54-1.99 2.35-2.17 5.42l-1.08 5.15H240l-4.07.81c-.72 1.08 1.36 5.88 6.24 14.37l7.59 13.29-2.98 3.8c-2.17 2.17-3.16 3.98-2.98 5.42.36 2.17 5.51 4.43 15.46 6.78l23.32 2.44-1.36 6.51c-7.77.72-16.9-.72-27.39-4.34-10.48-3.43-16.09-6.87-16.81-10.3-.54-3.25 1.63-6.78 6.51-10.58-10.3-17.17-14.82-27.3-13.56-30.37.54-1.27 2.17-2.08 4.88-2.44l6.78.54c-.36-2.35-.18-4.7.54-7.05.54-2.35 1.45-3.89 2.71-4.61l4.07-.54c1.81.36 3.34.99 4.61 1.9.36-4.16 1.63-6.51 3.8-7.05l4.61.81 4.87 2.98"/><path fill="#FFE100" d="M659.48 589.93c-18.98 24.04-42.21 40.85-69.69 50.43-18.98 6.51-40.22-1.36-63.72-23.59-23.68-22.42-29.83-41.58-18.44-57.48 11.57-16.09 27.3-32 47.18-47.72 23.14-18.44 44.92-30.46 65.35-36.06 7.41-11.75 12.2-17.9 14.37-18.44l7.86 1.63c3.8 1.81 7.14 4.97 10.03 9.49 9.58 1.27 17.63 5.69 24.13 13.29 6.87 7.77 10.58 17.35 11.12 28.74 1.09 27.83-8.31 54.4-28.19 79.71"/><path fill="#F9BE00" d="M684.69 496.11c10.12 27.3 3.07 57.21-21.15 89.75-22.78 30.91-47.45 48.18-74.03 51.79 24.58-11.39 47-32.27 67.25-62.64 20.07-30.19 29.38-56.49 27.93-78.9"/><path fill="#0D131A" d="M644.29 457.06c3.98 1.81 7.32 4.88 10.03 9.22 22.78 2.71 35.25 18.53 37.42 47.45 1.81 24.22-6.24 48.72-24.13 73.48-19.52 26.57-44.74 44.74-75.65 54.5l-5.69-.54c-.54-1.45.81-2.8 4.07-4.07 28.02-10.67 51.25-28.38 69.69-53.15 17.9-24.04 26.12-47.18 24.68-69.42-1.81-24.22-11.93-38.5-30.37-42.84-2.35-.18-3.89-1.08-4.61-2.71-1.27-2.35-3.53-4.25-6.78-5.69l-8.41-1.36c-1.63.54-3.8 3.07-6.51 7.59-2.71 4.88-4.88 7.59-6.51 8.13-21.15 8.32-39.77 18.17-55.86 29.56-18.8 13.38-36.88 30.46-54.23 51.25-2.17 2.53-3.89 3.34-5.15 2.44-1.08-.9-.63-2.8 1.36-5.69 18.98-24.58 38.96-43.93 59.93-58.03 15-10.12 31.73-18.17 50.16-24.13l6.78-8.68c3.25-5.24 6.24-8.13 8.95-8.68 3.42-.89 7.04-.44 10.83 1.37"/><path fill="#0D131A" d="m638.05 473.06 4.88-.81c.9.54.45 1.81-1.36 3.8-1.99 2.35-2.98 3.89-2.98 4.61 0 1.27.54 2.71 1.63 4.34l1.63 3.25-2.17 2.98c-1.45 1.63-2.17 3.43-2.17 5.42 0 2.35.72 4.61 2.17 6.78l2.17 4.07-1.36 3.25c-1.08 1.81-1.54 3.43-1.36 4.88.18 1.45 1.27 3.25 3.25 5.42l3.25 4.07-1.36 4.07c-.72 2.17-.9 4.16-.54 5.97l4.34 3.8 7.32 2.44c2.35.18 3.53.9 3.53 2.17l-2.98 2.17-10.03-1.63c-3.98-1.63-6.42-3.8-7.32-6.51-.54-1.45-.63-3.34-.27-5.69.36-2.53 1.17-4.52 2.44-5.97l-4.61-3.8c-1.45-1.81-2.26-3.62-2.44-5.42-.72-3.25.54-6.33 3.8-9.22-3.43-2.89-5.42-6.24-5.97-10.03-.36-3.98 1.45-7.32 5.42-10.03-2.35-1.81-3.53-4.25-3.53-7.32-.18-1.27.27-2.62 1.36-4.07l3.26-2.99M244.88 343.45c1.99-2.89 3.62-3.98 4.88-3.25 1.27.9.99 2.8-.81 5.69-12.29 20.97-20.07 42.66-23.32 65.08-3.25 22.6-1.81 45.01 4.34 67.25 6.69 24.22 18.71 44.65 36.06 61.28 17.17 16.27 38.41 27.93 63.72 34.98 4.88 1.45 7.14 2.8 6.78 4.07l-7.86.81c-26.03-5.06-48.9-16.54-68.6-34.44-19.7-17.9-32.99-39.32-39.86-64.26-6.33-22.78-7.32-46.28-2.98-70.5 4.33-24.41 13.55-46.65 27.65-66.71"/></svg>